<svg fill="none" height="774" viewBox="0 0 1285 774" width="1285" xmlns="http://www.w3.org/2000/svg" xmlns:xlink="http://www.w3.org/1999/xlink"><filter id="a" color-interpolation-filters="sRGB" filterUnits="userSpaceOnUse" height="648.287" width="648.287" x="352.266" y="14.8402"><feFlood flood-opacity="0" result="BackgroundImageFix"/><feBlend in="SourceGraphic" in2="BackgroundImageFix" mode="normal" result="shape"/><feGaussianBlur result="effect1_foregroundBlur" stdDeviation="4.22051"/></filter><filter id="b" color-interpolation-filters="sRGB" filterUnits="userSpaceOnUse" height="319.283" width="319.283" x="704.498" y="425.463"><feFlood flood-opacity="0" result="BackgroundImageFix"/><feBlend in="SourceGraphic" in2="BackgroundImageFix" mode="normal" result="shape"/><feGaussianBlur result="effect1_foregroundBlur" stdDeviation="21.1026"/></filter><filter id="c" color-interpolation-filters="sRGB" filterUnits="userSpaceOnUse" height="378.644" width="378.644" x="708.407" y="254.208"><feFlood flood-opacity="0" result="BackgroundImageFix"/><feBlend in="SourceGraphic" in2="BackgroundImageFix" mode="normal" result="shape"/><feGaussianBlur result="effect1_foregroundBlur" stdDeviation="12.6615"/></filter><linearGradient id="d"><stop offset="0" stop-color="#3184ff"/><stop offset="1" stop-color="#3184ff" stop-opacity="0"/></linearGradient><linearGradient id="e" gradientUnits="userSpaceOnUse" x1="378.662" x2="662.239" xlink:href="#d" y1="544.316" y2="257.045"/><linearGradient id="f" gradientUnits="userSpaceOnUse" x1="557.068" x2="840.645" xlink:href="#d" y1="446.999" y2="159.729"/><linearGradient id="g" gradientUnits="userSpaceOnUse" x1="819.746" x2="925.232" xlink:href="#d" y1="625.283" y2="518.423"/><linearGradient id="h" gradientUnits="userSpaceOnUse" x1="835.735" x2="983.045" xlink:href="#d" y1="499.643" y2="350.413"/><path d="m273.133 282.656 280.621-43.498 173.02 346.885-287.374 44.545z" fill="url(#e)"/><g filter="url(#a)" opacity=".5"><path d="m451.539 185.34 280.621-43.499 173.02 346.885-287.374 44.545z" fill="url(#f)"/></g><g filter="url(#b)" opacity=".5"><path d="m780.491 527.95 104.387-16.181 64.36 129.036-106.898 16.57z" fill="url(#g)"/></g><g filter="url(#c)" opacity=".5"><path d="m780.915 363.717 145.775-22.596 89.88 180.198-149.283 23.139z" fill="url(#h)"/></g></svg>