<svg width="277" height="203" viewBox="0 0 277 203" fill="none" xmlns="http://www.w3.org/2000/svg">
<mask id="mask0" style="mask-type:alpha" maskUnits="userSpaceOnUse" x="100" y="58" width="77" height="86">
<path d="M175.218 142.443V133.172C175.218 122.927 166.874 114.629 156.675 114.629H119.589H119.543C109.298 114.629 101 122.927 101 133.172V142.443" stroke="url(#paint0_linear)" stroke-width="2" stroke-linecap="round" stroke-linejoin="round"/>
<path d="M138.133 59C133.215 59 128.498 60.9536 125.021 64.4311C121.543 67.9086 119.59 72.625 119.59 77.5429C119.59 82.4608 121.543 87.1772 125.021 90.6547C128.498 94.1322 133.215 96.0858 138.133 96.0858C143.051 96.0858 147.767 94.1322 151.245 90.6547C154.722 87.1772 156.676 82.4608 156.676 77.5429C156.676 72.625 154.722 67.9086 151.245 64.4311C147.767 60.9536 143.051 59 138.133 59Z" stroke="url(#paint1_linear)" stroke-width="2" stroke-linecap="round" stroke-linejoin="round"/>
</mask>
<g mask="url(#mask0)">
<rect x="90.4336" y="55.2695" width="95.097" height="89.5031" fill="url(#paint2_linear)"/>
</g>
<defs>
<linearGradient id="paint0_linear" x1="132.586" y1="114.629" x2="147.678" y2="142.309" gradientUnits="userSpaceOnUse">
<stop stop-color="#3183FF"/>
<stop offset="1" stop-color="#0B62E4"/>
</linearGradient>
<linearGradient id="paint1_linear" x1="135.373" y1="59" x2="157.723" y2="74.3622" gradientUnits="userSpaceOnUse">
<stop stop-color="#3183FF"/>
<stop offset="1" stop-color="#0B62E4"/>
</linearGradient>
<linearGradient id="paint2_linear" x1="137.982" y1="85.8271" x2="137.982" y2="138.868" gradientUnits="userSpaceOnUse">
<stop stop-color="#186DED"/>
<stop offset="1" stop-color="#186DED" stop-opacity="0"/>
</linearGradient>
</defs>
</svg>
